<?xml version="1.0" encoding="UTF-8" standalone="no"?>
<!-- Created with Inkscape (http://www.inkscape.org/) -->
<svg
   xmlns:dc="http://purl.org/dc/elements/1.1/"
   xmlns:cc="http://web.resource.org/cc/"
   xmlns:rdf="http://www.w3.org/1999/02/22-rdf-syntax-ns#"
   xmlns:svg="http://www.w3.org/2000/svg"
   xmlns="http://www.w3.org/2000/svg"
   xmlns:xlink="http://www.w3.org/1999/xlink"
   xmlns:sodipodi="http://inkscape.sourceforge.net/DTD/sodipodi-0.dtd"
   xmlns:inkscape="http://www.inkscape.org/namespaces/inkscape"
   width="744.09448819"
   height="1052.3622047"
   id="svg2"
   sodipodi:version="0.32"
   inkscape:version="0.42"
   sodipodi:docbase="/home/daniel/giraffe/install"
   sodipodi:docname="grafit.svg"
   inkscape:export-filename="/home/daniel/giraffe/install/grafit16.png"
   inkscape:export-xdpi="4.9800000"
   inkscape:export-ydpi="4.9800000">
  <defs
     id="defs4">
    <linearGradient
       id="linearGradient2051">
      <stop
         style="stop-color:#000000;stop-opacity:1;"
         offset="0"
         id="stop2053" />
      <stop
         style="stop-color:#000000;stop-opacity:0.60824740;"
         offset="1.0000000"
         id="stop2055" />
    </linearGradient>
    <linearGradient
       id="linearGradient2035">
      <stop
         style="stop-color:#243f99;stop-opacity:1.0000000;"
         offset="0.0000000"
         id="stop2037" />
      <stop
         id="stop2783"
         offset="0.50000000"
         style="stop-color:#2a4ab3;stop-opacity:0.65098041;" />
      <stop
         style="stop-color:#4a63b3;stop-opacity:0.44313726;"
         offset="0.75000000"
         id="stop2785" />
      <stop
         style="stop-color:#4a2ab3;stop-opacity:0;"
         offset="1"
         id="stop2039" />
    </linearGradient>
    <radialGradient
       inkscape:collect="always"
       xlink:href="#linearGradient2035"
       id="radialGradient2781"
       cx="385.71429"
       cy="289.50504"
       fx="385.71429"
       fy="289.50504"
       r="32.337185"
       gradientUnits="userSpaceOnUse" />
    <linearGradient
       inkscape:collect="always"
       xlink:href="#linearGradient2035"
       id="linearGradient2044"
       x1="353.37711"
       y1="289.50504"
       x2="405.58801"
       y2="310.97476"
       gradientUnits="userSpaceOnUse"
       spreadMethod="pad" />
    <radialGradient
       inkscape:collect="always"
       xlink:href="#linearGradient2051"
       id="radialGradient2057"
       cx="326.94791"
       cy="595.81738"
       fx="326.94791"
       fy="595.81738"
       r="132.41657"
       gradientTransform="matrix(1.000000,0.000000,0.000000,0.926721,0.000000,41.99361)"
       gradientUnits="userSpaceOnUse" />
  </defs>
  <sodipodi:namedview
     id="base"
     pagecolor="#ffffff"
     bordercolor="#666666"
     borderopacity="1.0"
     inkscape:pageopacity="0.0"
     inkscape:pageshadow="2"
     inkscape:zoom="1.1995847"
     inkscape:cx="326.13747"
     inkscape:cy="420.94487"
     inkscape:document-units="px"
     inkscape:current-layer="layer1"
     inkscape:window-width="1080"
     inkscape:window-height="727"
     inkscape:window-x="0"
     inkscape:window-y="0" />
  <metadata
     id="metadata7">
    <rdf:RDF>
      <cc:Work
         rdf:about="">
        <dc:format>image/svg+xml</dc:format>
        <dc:type
           rdf:resource="http://purl.org/dc/dcmitype/StillImage" />
      </cc:Work>
    </rdf:RDF>
  </metadata>
  <g
     inkscape:label="Layer 1"
     inkscape:groupmode="layer"
     id="layer1">
    <path
       sodipodi:type="arc"
       style="fill:#ffffff;fill-opacity:1.0000000;fill-rule:evenodd;stroke:#192f9c;stroke-width:0.13732684;stroke-linecap:butt;stroke-linejoin:miter;stroke-miterlimit:4.0000000;stroke-dasharray:none;stroke-opacity:0.99456519"
       id="path2047"
       sodipodi:cx="385.71429"
       sodipodi:cy="289.50504"
       sodipodi:rx="31.428572"
       sodipodi:ry="31.428572"
       d="M 417.14287 289.50504 A 31.428572 31.428572 0 1 1  354.28572,289.50504 A 31.428572 31.428572 0 1 1  417.14287 289.50504 z"
       transform="matrix(-2.257702,-2.090655,2.921601,-3.155044,314.2765,2353.681)" />
    <path
       sodipodi:type="arc"
       style="fill:url(#radialGradient2781);fill-opacity:1.0000000;fill-rule:evenodd;stroke:#192f9c;stroke-width:1.8172241;stroke-linecap:butt;stroke-linejoin:miter;stroke-miterlimit:4.0000000;stroke-dasharray:none;stroke-opacity:0.99456519"
       id="path1311"
       sodipodi:cx="385.71429"
       sodipodi:cy="289.50504"
       sodipodi:rx="31.428572"
       sodipodi:ry="31.428572"
       d="M 417.14287 289.50504 A 31.428572 31.428572 0 1 1  354.28572,289.50504 A 31.428572 31.428572 0 1 1  417.14287 289.50504 z"
       transform="matrix(-2.257702,-2.090655,2.921601,-3.155044,314.7262,2354.564)" />
    <path
       style="fill:#535353;fill-opacity:0.54644811;fill-rule:nonzero;stroke:#085c00;stroke-width:0.0000000;stroke-linecap:butt;stroke-linejoin:miter;stroke-miterlimit:4.0000000;stroke-dasharray:none;stroke-opacity:0.36065570"
       id="path2074"
       d="M 310.31960,481.38054 C 307.92592,505.56938 302.22904,529.23761 299.06715,553.40137 C 294.37796,584.82783 285.15496,616.34482 270.23501,642.76843 C 251.93247,673.48794 223.03327,700.11480 192.50138,704.66153 C 173.28643,671.64200 218.38859,650.42942 244.22668,647.07952 C 262.27775,644.34065 277.98322,650.87923 294.76073,657.98380 C 311.14984,666.40306 327.76712,674.07514 344.65721,680.84111 C 363.36021,688.68733 382.80144,689.57181 402.35966,689.61883 L 452.69972,671.91966 C 437.00375,692.82944 441.31284,694.64761 402.65384,712.05475 C 494.07640,647.59392 397.37311,729.41231 364.52088,723.12448 C 344.65594,722.69960 324.96844,720.70000 306.03094,712.71838 C 289.21208,705.84019 272.65047,698.23158 256.32869,689.75265 C 239.80479,682.93734 224.15651,678.03588 206.55104,681.03635 C 173.69612,692.38387 241.94968,634.52125 230.95159,671.59440 C 242.77201,665.83003 182.95237,717.45630 227.62202,665.05859 C 243.47926,640.09729 252.29847,608.72130 257.84481,578.16304 C 260.61643,554.54693 265.76651,531.14662 268.02353,507.66295 L 310.31960,481.38054 z "
       sodipodi:nodetypes="ccccccccccccccccccc" />
    <path
       sodipodi:type="arc"
       style="fill:url(#linearGradient2044);fill-opacity:1.0000000;fill-rule:evenodd;stroke:#192f9c;stroke-width:0.13732684;stroke-linecap:butt;stroke-linejoin:miter;stroke-miterlimit:4.0000000;stroke-dasharray:none;stroke-opacity:0.99456519"
       id="path1312"
       sodipodi:cx="385.71429"
       sodipodi:cy="289.50504"
       sodipodi:rx="31.428572"
       sodipodi:ry="31.428572"
       d="M 417.14287 289.50504 A 31.428572 31.428572 0 1 1  354.28572,289.50504 A 31.428572 31.428572 0 1 1  417.14287 289.50504 z"
       transform="matrix(-2.257702,-2.090655,2.921601,-3.155044,316.7774,2353.681)" />
    <path
       style="fill:url(#radialGradient2057);fill-opacity:1.0000000;fill-rule:nonzero;stroke:#085c00;stroke-width:0.0000000;stroke-linecap:butt;stroke-linejoin:miter;stroke-miterlimit:4.0000000;stroke-dasharray:none;stroke-opacity:0.36065570"
       id="path2783"
       d="M 316.98436,471.43690 C 314.59068,495.95891 308.89380,519.95314 305.73191,544.44972 C 301.04272,576.30904 291.81972,608.26013 276.89977,635.04769 C 258.59723,666.19032 229.69803,693.18393 199.16614,697.79328 C 179.95119,664.31896 225.05335,642.81420 250.89144,639.41816 C 268.94251,636.64157 284.64798,643.27021 301.42549,650.47263 C 317.81460,659.00786 334.43188,666.78561 351.32197,673.64477 C 370.02497,681.59906 389.46620,682.49572 409.02442,682.54339 L 459.36448,664.60044 C 443.66851,685.79822 447.97760,687.64144 409.31860,705.28834 C 500.74116,639.93965 404.03787,722.88497 371.18564,716.51054 C 351.32070,716.07980 331.63320,714.05266 312.69570,705.96111 C 295.87684,698.98818 279.31523,691.27477 262.99345,682.67905 C 246.46955,675.76987 230.82127,670.80090 213.21580,673.84270 C 180.36088,685.34652 248.61444,626.68692 237.61635,664.27070 C 249.43677,658.42693 189.61713,710.76428 234.28678,657.64487 C 250.14402,632.33976 258.96323,600.53161 264.50957,569.55245 C 267.28119,545.61106 272.43127,521.88844 274.68829,498.08132 L 316.98436,471.43690 z "
       sodipodi:nodetypes="ccccccccccccccccccc" />
    <path
       style="fill:#e8e7f6;fill-opacity:1.0000000;fill-rule:nonzero;stroke:none;stroke-width:1.0000000px;stroke-linecap:butt;stroke-linejoin:miter;stroke-opacity:1.0000000"
       id="path2060"
       d="M 325.26905,537.67675 C 330.53017,537.80093 335.79396,535.27432 341.05629,535.29884 C 348.05715,534.83502 354.10609,537.19772 360.28119,540.07896 C 364.39771,542.71440 368.40424,545.63421 371.78702,549.18080 C 374.20430,551.55771 376.64780,553.83066 378.71178,556.51090 L 368.03372,562.77154 C 366.02772,560.15271 363.67266,557.88316 361.34100,555.54102 C 357.86471,552.28760 354.14765,549.23357 350.01711,546.82989 C 344.02713,543.96105 338.06585,541.95657 331.27771,542.40340 C 325.90251,542.42814 320.52604,542.40433 315.15196,542.52637 L 325.26905,537.67675 z "
       sodipodi:nodetypes="ccccccccccc" />
  </g>
</svg>
